<svg width="17" height="17" viewBox="0 0 17 17" fill="none" xmlns="http://www.w3.org/2000/svg">
<path d="M16.0469 0.6875H0.953125C0.590137 0.6875 0.296875 0.966797 0.296875 1.3125V15.6875C0.296875 16.0332 0.590137 16.3125 0.953125 16.3125H16.0469C16.4099 16.3125 16.7031 16.0332 16.7031 15.6875V1.3125C16.7031 0.966797 16.4099 0.6875 16.0469 0.6875ZM14.152 5.24805H12.8415C11.8141 5.24805 11.6151 5.71289 11.6151 6.39648V7.90234H14.0679L13.7479 10.2598H11.6151V16.3125H9.05781V10.2617H6.91885V7.90234H9.05781V6.16406C9.05781 4.14648 10.3519 3.04688 12.2427 3.04688C13.1491 3.04688 13.9264 3.11133 14.154 3.14063V5.24805H14.152Z" fill="white"/>
</svg>
