<svg width="16" height="17" viewBox="0 0 16 17" fill="none" xmlns="http://www.w3.org/2000/svg">
<path d="M15.1885 0.6875H0.813477C0.467773 0.6875 0.188477 0.966797 0.188477 1.3125V15.6875C0.188477 16.0332 0.467773 16.3125 0.813477 16.3125H15.1885C15.5342 16.3125 15.8135 16.0332 15.8135 15.6875V1.3125C15.8135 0.966797 15.5342 0.6875 15.1885 0.6875ZM4.82324 14.002H2.50488V6.54492H4.82324V14.002ZM3.66504 5.52539C3.39927 5.52539 3.13947 5.44658 2.91849 5.29893C2.69751 5.15128 2.52528 4.94141 2.42358 4.69587C2.32187 4.45033 2.29526 4.18015 2.34711 3.91949C2.39896 3.65883 2.52694 3.41939 2.71486 3.23147C2.90279 3.04354 3.14222 2.91556 3.40289 2.86371C3.66355 2.81186 3.93373 2.83847 4.17927 2.94018C4.42481 3.04188 4.63467 3.21411 4.78233 3.43509C4.92998 3.65607 5.00879 3.91587 5.00879 4.18164C5.00684 4.92383 4.40527 5.52539 3.66504 5.52539ZM13.5029 14.002H11.1865V10.375C11.1865 9.50977 11.1709 8.39844 9.98145 8.39844C8.77637 8.39844 8.59082 9.33984 8.59082 10.3125V14.002H6.27637V6.54492H8.49902V7.56445H8.53027C8.83887 6.97852 9.59473 6.35938 10.7236 6.35938C13.0713 6.35938 13.5029 7.9043 13.5029 9.91211V14.002Z" fill="white"/>
</svg>
