<svg width="12" height="12" viewBox="0 0 12 12" fill="none" xmlns="http://www.w3.org/2000/svg">
<path d="M11.8333 9.97843L10.1414 11.6567C9.89165 11.9129 9.56062 11.9996 9.23823 12C7.81252 11.9573 6.4649 11.257 5.35842 10.5379C3.5422 9.21656 1.87574 7.57821 0.829842 5.59833C0.428702 4.7681 -0.0419782 3.70878 0.0029918 2.78209C0.0070018 2.43349 0.100942 2.09136 0.346452 1.86666L2.03831 0.175649C2.38963 -0.123182 2.72938 -0.0198614 2.9542 0.328219L4.31531 2.90924C4.45857 3.21501 4.37639 3.54263 4.16265 3.76112L3.53933 4.38412C3.50085 4.43683 3.47635 4.49683 3.47573 4.56213C3.71475 5.48736 4.43886 6.34013 5.07854 6.927C5.71821 7.51388 6.40579 8.30898 7.29831 8.49721C7.40863 8.52798 7.54376 8.53879 7.62269 8.46542L8.34779 7.72799C8.59775 7.53854 8.95865 7.44594 9.2255 7.60085H9.23822L11.6933 9.05028C12.0537 9.2762 12.0913 9.7128 11.8333 9.97843Z" fill="#FFCC1B"/>
</svg>
