<svg width="18" height="15" viewBox="0 0 18 15" fill="none" xmlns="http://www.w3.org/2000/svg">
<path d="M17.125 2.4668C16.5273 2.72462 15.877 2.91016 15.207 2.98243C15.9026 2.56922 16.4234 1.91641 16.6719 1.14649C16.0192 1.53475 15.3042 1.80701 14.5586 1.95118C14.247 1.61803 13.8701 1.35262 13.4514 1.17151C13.0327 0.990389 12.5812 0.897438 12.125 0.898446C10.2793 0.898446 8.79492 2.39454 8.79492 4.23048C8.79492 4.48829 8.82617 4.7461 8.87695 4.99415C6.11328 4.84962 3.64844 3.5293 2.00977 1.50782C1.71118 2.01781 1.55471 2.5985 1.55664 3.18946C1.55664 4.34571 2.14453 5.36524 3.04102 5.96485C2.5127 5.94405 1.99676 5.79883 1.53516 5.54102V5.58204C1.53516 7.20118 2.67969 8.54298 4.20508 8.85157C3.91867 8.92597 3.62404 8.96403 3.32812 8.96485C3.11133 8.96485 2.90625 8.94337 2.69922 8.91407C3.12109 10.2344 4.34961 11.1934 5.8125 11.2246C4.66797 12.1211 3.23437 12.6484 1.67773 12.6484C1.39844 12.6484 1.14062 12.6387 0.873047 12.6074C2.34961 13.5547 4.10156 14.1016 5.98828 14.1016C12.1133 14.1016 15.4648 9.02735 15.4648 4.62306C15.4648 4.47852 15.4648 4.33399 15.4551 4.18946C16.1035 3.71485 16.6719 3.12696 17.125 2.4668Z" fill="white"/>
</svg>
